<?xml version="1.0" encoding="utf-8"?>
<!-- Generator: Adobe Illustrator 27.8.1, SVG Export Plug-In . SVG Version: 6.00 Build 0)  -->
<svg version="1.1" id="Layer_1" xmlns="http://www.w3.org/2000/svg" xmlns:xlink="http://www.w3.org/1999/xlink" x="0px" y="0px"
	 viewBox="0 0 242 536" style="enable-background:new 0 0 242 536;" xml:space="preserve">
<style type="text/css">
	.st0{fill:#D84141;}
	.st1{fill:#FFFFFF;}
</style>
 <defs>
        <clipPath id="mask" clipPathUnits="objectBoundingBox">
            <rect x="0" y="0" width="1" height="0">
                <animate attributeName="height" from="0" to="1" dur="1s" repeatCount="indefinite" />
            </rect>
        </clipPath>
    </defs>
<g id="fundo" clip-path="url(#mask)">
	<path class="st0" d="M210.1,431.4c0-1-0.2-1.9-0.4-3.2c-2.7,0-5.1,0-7.5,0c-7.7,0-15.5,0.1-23.2-0.2c-4.7-0.2-7.5-3.3-7.5-7.6
		c0-4.2,2.8-7.2,7.4-7.7c2.2-0.2,4.5-0.1,6.7-0.1c8,0,16,0,24.3,0c0-15.1,0-29.5,0-44.5c-2,0-3.9,0-5.7,0c-21.3,0-42.7,0-64,0
		c-1.7,0-3.5,0.1-5.2-0.2c-4.2-0.5-6.5-3-6.7-7.2s2-6.9,6.1-7.7c1.8-0.4,3.8-0.4,5.6-0.4c21.3,0,42.7,0,64,0c1.8,0,3.7,0,5.8,0
		c0-43.5,0-86.5,0-130c-2,0-3.9,0-5.7,0c-15.8,0-31.7,0-47.5,0c-7.1,0-14.1,0.1-21.2-0.2c-4.4-0.2-6.9-2.8-7.2-7.3
		c-0.2-4.3,2.5-7.3,7.1-7.9c1.5-0.2,3.1-0.1,4.6-0.1c21.2,0,42.3,0,63.5,0c2,0,4,0,6.5,0c0-9.3,0.1-18.1,0-26.8
		c-0.1-14.2-5.3-26.2-16.1-35.5c-2.5-2.1-6.3-3.7-9.5-3.7c-43.7-0.2-87.5,0.3-131.2-0.5c-10.8-0.2-17.5,4.1-22.4,12.2
		c-3.4,5.5-6.7,11.6-7.6,17.8c-1.5,10.8-1,21.9-1.3,32.9c0,1.1,0.3,2.3,0.5,3.6c2.4,0,4.4,0,6.5,0c22,0,44.1,0,66.1,0
		c1.9,0,3.8-0.1,5.7,0.3c4.1,0.7,6.4,3.4,6.4,7.5s-2.2,6.8-6.4,7.4c-1.9,0.3-3.8,0.3-5.7,0.3c-22.2,0-44.4,0-66.6,0c-2,0-4,0-6.1,0
		c0,43.6,0,86.6,0,130c2.2,0,4,0,5.9,0c22.6,0,45.1,0,67.7,0c2,0,4.2,0.1,6.1,0.6c3.8,1.1,5.5,4,5.2,7.9c-0.3,3.7-2.4,6.1-6.1,6.7
		c-1.8,0.3-3.8,0.3-5.7,0.3c-22.6,0-45.1,0-67.7,0c-1.8,0-3.6,0-5.5,0c0,15.2,0,29.6,0,44.5c9,0,17.8,0,26.5,0
		c8.1,0,11.6,2.3,11.7,7.6c0.1,5.5-3.4,7.9-11.9,7.9c-8.7,0-17.5,0-26.6,0c0,2.2,0,3.7,0,5.2c0,20.1,0,40.3,0,60.4
		c0,14.3,8.5,22.7,22.8,22.7c47.3,0,94.7,0,142,0c2.2,0,4.5-0.1,6.7-0.6c10.5-2.4,16.5-10.6,16.5-23.1
		C210.2,472.3,210.1,451.8,210.1,431.4z"/>
</g>
<g id="garrafa">
	<path d="M36.6,532c-0.7-0.3-1.5-0.8-2.2-1C17,526.2,6.7,512.8,6.6,494.6c-0.1-45.1,0-90.2,0-135.3c0-58.9,0.1-117.8-0.1-176.6
		C6.4,161.7,14,144.6,30,131c1.4-1.2,2.3-3.7,2.4-5.6c0.3-6.5,0.1-13.1,0.1-19.6c0.1-17.4,11.9-29.2,29.2-29.3c8.1,0,16.1,0,24.8,0
		c0-6.1,0.1-11.7-0.1-17.4c0-1-0.8-2.3-1.7-2.9c-4.1-2.7-5.1-6.6-4.9-11.2c0.2-5.2-0.1-10.3,0.1-15.5C80.3,15.2,91.7,3.7,106,3.2
		c8.3-0.3,16.5-0.3,24.8,0C141.4,3.7,149.5,9,154,18.6c1.7,3.5,3.6,4.2,7,4.1c10.3-0.2,20.7-0.1,31-0.1c26.4,0.1,47,17.7,50,42.7
		s-13.4,47.3-39.4,53.2c-0.8,0.2-1.6,0.3-2.5,0.5c-1.1,5.8-0.4,10.2,4.6,14.5c14,12.1,20.9,28,20.9,46.5c0.1,104.5,0.1,209,0,313.5
		c0,19.1-10.9,32.8-29.1,37.6c-0.6,0.2-1.2,0.6-1.8,0.8C141.9,532,89.2,532,36.6,532z M22,428.1c0,2.2,0,3.7,0,5.2
		c0,20.1,0,40.3,0,60.4c0,14.3,8.5,22.7,22.8,22.7c47.3,0,94.7,0,142,0c2.2,0,4.5-0.1,6.7-0.6c10.5-2.4,16.5-10.6,16.5-23.1
		c0.1-20.5,0-41,0-61.5c0-1-0.2-1.9-0.4-3.2c-2.7,0-5.1,0-7.5,0c-7.7,0-15.5,0.1-23.2-0.2c-4.7-0.2-7.5-3.3-7.5-7.6
		c0-4.2,2.8-7.2,7.4-7.7c2.2-0.2,4.5-0.1,6.7-0.1c8,0,16,0,24.3,0c0-15.1,0-29.5,0-44.5c-2,0-3.9,0-5.7,0c-21.3,0-42.7,0-64,0
		c-1.7,0-3.5,0.1-5.2-0.2c-4.2-0.5-6.5-3-6.7-7.2s2-6.9,6.1-7.7c1.8-0.4,3.8-0.4,5.6-0.4c21.3,0,42.7,0,64,0c1.8,0,3.7,0,5.8,0
		c0-43.5,0-86.5,0-130c-2,0-3.9,0-5.7,0c-15.8,0-31.7,0-47.5,0c-7.1,0-14.1,0.1-21.2-0.2c-4.4-0.2-6.9-2.8-7.2-7.3
		c-0.2-4.3,2.5-7.3,7.1-7.9c1.5-0.2,3.1-0.1,4.6-0.1c21.2,0,42.3,0,63.5,0c2,0,4,0,6.5,0c0-9.3,0.1-18.1,0-26.8
		c-0.1-14.2-5.3-26.2-16.1-35.5c-2.5-2.1-6.3-3.7-9.5-3.7c-43.7-0.2-87.5,0.3-131.2-0.5c-10.8-0.2-17.5,4.1-22.4,12.2
		c-3.4,5.5-6.7,11.6-7.6,17.8c-1.5,10.8-1,21.9-1.3,32.9c0,1.1,0.3,2.3,0.5,3.6c2.4,0,4.4,0,6.5,0c22,0,44.1,0,66.1,0
		c1.9,0,3.8-0.1,5.7,0.3c4.1,0.7,6.4,3.4,6.4,7.5s-2.2,6.8-6.4,7.4c-1.9,0.3-3.8,0.3-5.7,0.3c-22.2,0-44.4,0-66.6,0c-2,0-4,0-6.1,0
		c0,43.6,0,86.6,0,130c2.2,0,4,0,5.9,0c22.6,0,45.1,0,67.7,0c2,0,4.2,0.1,6.1,0.6c3.8,1.1,5.5,4,5.2,7.9c-0.3,3.7-2.4,6.1-6.1,6.7
		c-1.8,0.3-3.8,0.3-5.7,0.3c-22.6,0-45.1,0-67.7,0c-1.8,0-3.6,0-5.5,0c0,15.2,0,29.6,0,44.5c9,0,17.8,0,26.5,0
		c8.1,0,11.6,2.3,11.7,7.6c0.1,5.5-3.4,7.9-11.9,7.9C39.9,428.1,31.2,428.1,22,428.1z M184,125.2c0-7.7,0.4-14.9-0.1-22.1
		c-0.5-6.6-5.5-11.1-12.1-11.1c-37.2-0.1-74.3-0.1-111.5,0c-6.1,0-11.4,4.1-11.9,10c-0.6,7.6-0.2,15.3-0.2,23.2
		C93.5,125.2,138.4,125.2,184,125.2z M150.1,76.4c5.3,0,9.8,0,14.2,0c22.4,0,28.9,4.8,35.5,26.2c0,0.1,0.2,0.3,0.3,0.4
		c15.6-3,26.6-16.2,26.5-32.1c-0.1-16-11.2-30.2-27.3-31.9c-13.9-1.5-28-0.3-42.1-0.3c-0.2,0.6-0.4,1.1-0.4,1.6
		c-0.1,6.3,0.8,13-6.2,16.8c-0.4,0.2-0.5,1.2-0.5,1.8C150.1,64.5,150.1,70.2,150.1,76.4z M95.8,42c15.1,0,30,0,45.4,0
		c0-4.2,0.2-8.1,0-12c-0.4-6.8-4.9-11.1-11.7-11.3c-4.5-0.2-9,0.2-13.4-0.1c-21.3-1.3-21.5,6.6-20.6,22.5
		C95.5,41.3,95.6,41.4,95.8,42z M102.2,76c11.1,0,21.6,0,32.1,0c0-6.2,0-11.9,0-18.2c-5.5,0-10.8,0-16.1,0c-5.3,0-10.5,0-16,0
		C102.2,64.2,102.2,69.9,102.2,76z"/>
	<path class="st1" d="M184,125.2c-45.6,0-90.4,0-135.7,0c0-7.8-0.5-15.6,0.2-23.2c0.5-5.9,5.8-10,11.9-10c37.2-0.1,74.3-0.1,111.5,0
		c6.5,0,11.6,4.6,12.1,11.1C184.4,110.3,184,117.5,184,125.2z"/>
	<path class="st1" d="M95.8,42c-0.2-0.6-0.3-0.7-0.3-0.9c-1-15.9-0.7-23.8,20.6-22.5c4.5,0.3,9-0.1,13.4,0.1
		c6.8,0.3,11.2,4.6,11.7,11.3c0.3,3.9,0,7.8,0,12C125.8,42,110.9,42,95.8,42z"/>
	<path class="st1" d="M102.2,76c0-6.1,0-11.8,0-18.2c5.5,0,10.8,0,16,0c5.3,0,10.5,0,16.1,0c0,6.3,0,12,0,18.2
		C123.8,76,113.3,76,102.2,76z"/>
</g>
</svg>
